<svg width="80" height="75" viewBox="0 0 80 75" fill="none" xmlns="http://www.w3.org/2000/svg">
<path d="M52.7956 30.9098C55.6335 33.4105 58.9105 36.2902 62.879 34.8321C66.8475 33.374 67.4525 29.128 68.0345 25.3107C68.5548 21.8165 69.0275 18.5199 71.7261 17.5284C72.3081 17.3145 72.5568 16.6826 72.3628 16.1534C72.1494 15.5712 71.518 15.3227 70.9888 15.5171C67.0203 16.9752 66.4154 21.2213 65.8333 25.0385C65.313 28.5328 64.8403 31.8294 62.1418 32.8209C59.3903 33.8318 56.8998 31.6239 54.2983 29.2767C51.4604 26.7761 48.1833 23.8963 44.2148 25.3544C40.2463 26.8125 39.6413 31.0586 39.0593 34.8758C38.539 38.3701 38.0663 41.6667 35.3677 42.6582C32.6163 43.6691 30.1258 41.4612 27.5242 39.114C24.6669 36.5605 21.4092 33.7336 17.4408 35.1917C13.4723 36.6498 12.8673 40.8959 12.2853 44.7131C11.765 48.2074 11.2923 51.504 8.5937 52.4955C5.89513 53.487 3.35177 51.2986 0.750209 48.9513C-2.1071 46.3978 -5.36479 43.571 -9.33327 45.0291C-9.91532 45.2429 -10.164 45.8748 -9.96999 46.4041C-9.80949 47.0057 -9.17806 47.2542 -8.59601 47.0403C-5.84453 46.0294 -3.35409 48.2372 -0.752521 50.5845C2.10479 53.138 5.36248 55.9648 9.27805 54.5262C13.1936 53.0875 13.8515 48.822 14.4335 45.0048C14.9539 41.5105 15.4265 38.2139 18.178 37.203C20.9295 36.1921 23.42 38.3999 26.0215 40.7472C28.8788 43.3007 32.1365 46.1275 36.105 44.6694C40.0735 43.2113 40.6784 38.9653 41.2605 35.1481C41.7808 31.6538 42.2535 28.3572 44.9521 27.3657C47.6506 26.3742 50.1411 28.5821 52.7956 30.9098Z" fill="#FF8585"/>
</svg>
