<svg width="70" height="68" viewBox="0 0 70 68" fill="none" xmlns="http://www.w3.org/2000/svg">
<circle cx="21.1399" cy="3.15538" r="2.1284" transform="rotate(22.7863 21.1399 3.15538)" fill="#F4B640"/>
<circle cx="35.2686" cy="9.09032" r="2.1284" transform="rotate(22.7863 35.2686 9.09032)" fill="#F4B640"/>
<circle cx="50.967" cy="15.685" r="2.1284" transform="rotate(22.7863 50.967 15.685)" fill="#F4B640"/>
<circle cx="66.6652" cy="22.2795" r="2.1284" transform="rotate(22.7863 66.6652 22.2795)" fill="#F4B640"/>
<circle cx="15.2047" cy="17.2844" r="2.1284" transform="rotate(22.7863 15.2047 17.2844)" fill="#F4B640"/>
<circle cx="29.3334" cy="23.2187" r="2.1284" transform="rotate(22.7863 29.3334 23.2187)" fill="#F4B640"/>
<circle cx="45.0318" cy="29.8135" r="2.1284" transform="rotate(22.7863 45.0318 29.8135)" fill="#F4B640"/>
<circle cx="60.73" cy="36.4079" r="2.1284" transform="rotate(22.7863 60.73 36.4079)" fill="#F4B640"/>
<circle cx="9.26981" cy="31.4123" r="2.1284" transform="rotate(22.7863 9.26981 31.4123)" fill="#F4B640"/>
<circle cx="23.3983" cy="37.3474" r="2.1284" transform="rotate(22.7863 23.3983 37.3474)" fill="#F4B640"/>
<circle cx="39.0967" cy="43.942" r="2.1284" transform="rotate(22.7863 39.0967 43.942)" fill="#F4B640"/>
<circle cx="54.795" cy="50.5366" r="2.1284" transform="rotate(22.7863 54.795 50.5366)" fill="#F4B640"/>
<circle cx="3.33481" cy="45.5408" r="2.1284" transform="rotate(22.7863 3.33481 45.5408)" fill="#F4B640"/>
<circle cx="17.4634" cy="51.4758" r="2.1284" transform="rotate(22.7863 17.4634 51.4758)" fill="#F4B640"/>
<circle cx="33.1618" cy="58.0705" r="2.1284" transform="rotate(22.7863 33.1618 58.0705)" fill="#F4B640"/>
<circle cx="48.86" cy="64.665" r="2.1284" transform="rotate(22.7863 48.86 64.665)" fill="#F4B640"/>
</svg>
