<svg width="106" height="16" viewBox="0 0 106 16" fill="none" xmlns="http://www.w3.org/2000/svg">
<path d="M6.94439 1.02476L5.04544 4.89075L0.796814 5.51269C0.0349102 5.62365 -0.270433 6.56679 0.282093 7.10698L3.35588 10.1145L2.62887 14.363C2.49801 15.131 3.30353 15.7062 3.9782 15.347L7.77899 13.341L11.5798 15.347C12.2544 15.7033 13.06 15.131 12.9291 14.363L12.2021 10.1145L15.2759 7.10698C15.8284 6.56679 15.5231 5.62365 14.7612 5.51269L10.5125 4.89075L8.6136 1.02476C8.27336 0.335653 7.28753 0.326893 6.94439 1.02476Z" fill="#FE7CD7"/>
<path d="M29.309 1.02476L27.4101 4.89075L23.1614 5.51269C22.3995 5.62365 22.0942 6.56679 22.6467 7.10698L25.7205 10.1145L24.9935 14.363C24.8626 15.131 25.6682 15.7062 26.3428 15.347L30.1436 13.341L33.9445 15.347C34.6191 15.7033 35.4246 15.131 35.2938 14.363L34.5668 10.1145L37.6406 7.10698C38.1931 6.56679 37.8878 5.62365 37.1259 5.51269L32.8772 4.89075L30.9783 1.02476C30.638 0.335653 29.6522 0.326893 29.309 1.02476Z" fill="#FE7CD7"/>
<path d="M51.6737 1.02476L49.7748 4.89075L45.5261 5.51269C44.7642 5.62365 44.4589 6.56679 45.0114 7.10698L48.0852 10.1145L47.3582 14.363C47.2273 15.131 48.0328 15.7062 48.7075 15.347L52.5083 13.341L56.3091 15.347C56.9838 15.7033 57.7893 15.131 57.6584 14.363L56.9314 10.1145L60.0052 7.10698C60.5577 6.56679 60.2524 5.62365 59.4905 5.51269L55.2418 4.89075L53.3429 1.02476C53.0027 0.335653 52.0168 0.326893 51.6737 1.02476Z" fill="#FE7CD7"/>
<path d="M74.0383 1.02476L72.1394 4.89075L67.8907 5.51269C67.1288 5.62365 66.8235 6.56679 67.376 7.10698L70.4498 10.1145L69.7228 14.363C69.5919 15.131 70.3975 15.7062 71.0721 15.347L74.8729 13.341L78.6737 15.347C79.3484 15.7033 80.1539 15.131 80.023 14.363L79.296 10.1145L82.3698 7.10698C82.9223 6.56679 82.617 5.62365 81.8551 5.51269L77.6065 4.89075L75.7075 1.02476C75.3673 0.335653 74.3815 0.326893 74.0383 1.02476Z" fill="#FE7CD7"/>
<path d="M96.403 1.02476L94.504 4.89075L90.2554 5.51269C89.4935 5.62365 89.1881 6.56679 89.7407 7.10698L92.8144 10.1145L92.0874 14.363C91.9566 15.131 92.7621 15.7062 93.4368 15.347L97.2376 13.341L101.038 15.347C101.713 15.7033 102.519 15.131 102.388 14.363L101.661 10.1145L104.735 7.10698C105.287 6.56679 104.982 5.62365 104.22 5.51269L99.9711 4.89075L98.0722 1.02476C97.7319 0.335653 96.7461 0.326893 96.403 1.02476Z" fill="#FE7CD7"/>
</svg>
