<svg width="88" height="30" viewBox="0 0 88 30" fill="none" xmlns="http://www.w3.org/2000/svg">
<path d="M24.8023 9.87451H19.8369V14.8239H24.8023V9.87451Z" fill="#70C889"/>
<path d="M19.8369 14.8239H14.8716V19.7733H19.8369V14.8239Z" fill="#F98C65"/>
<path d="M29.7676 24.6984H24.8022V29.6478H29.7676V24.6984Z" fill="#00EDA4"/>
<path d="M14.896 24.6984H9.93066V29.6478H14.896V24.6984Z" fill="#25C6FE"/>
<path d="M9.93069 14.8239H4.96533V19.7733H9.93069V14.8239Z" fill="#5D5CB0"/>
<path d="M4.96536 9.87451H0V14.8239H4.96536V9.87451Z" fill="#25C6FE"/>
<path d="M9.93069 0H4.96533V4.94942H9.93069V0Z" fill="#FFB404"/>
<path d="M83.0591 0H78.0938V4.94942H83.0591V0Z" fill="#93A2FF"/>
<path d="M88 0H83.0347V4.94942H88V0Z" fill="#BDDF60"/>
<path fill-rule="evenodd" clip-rule="evenodd" d="M88 9.87438V4.94946H83.0347V9.87438H88Z" fill="#25C6FE"/>
<path d="M19.8368 19.7732H14.8714V14.8238V9.87438V4.94946H9.93066V9.87438V14.8238V19.7732V24.6981H14.8714H19.8368H24.8022V19.7732H19.8368Z" fill="#263238"/>
<path d="M34.6346 15.5343H34.8312V15.2893C34.8312 14.0642 33.8972 13.6722 32.6681 13.6722C30.8 13.6722 28.7106 15.0688 28.7106 15.0688L26.9899 11.5895C26.9899 11.5895 29.5217 9.67834 33.1597 9.67834C37.2893 9.67834 39.772 11.9325 39.772 15.6569V24.6736H35.2737V23.7915C35.2737 23.3015 35.3229 22.885 35.3229 22.885H35.2737C35.2737 22.885 34.1921 25.0166 31.0949 25.0166C28.3418 25.0166 26.105 23.2035 26.105 20.2877C26.105 16.0244 32.3486 15.5343 34.6346 15.5343ZM32.4715 21.2678C33.7497 21.2678 34.905 19.8712 34.905 18.6706V18.3521H34.4379C32.8648 18.3521 31.0703 18.8176 31.0703 20.0427C31.0703 20.7288 31.5128 21.2678 32.4715 21.2678Z" fill="#253238"/>
<path d="M42.5251 14.1133H40.6323V10.2665H42.648V6.05212H47.4413V10.2665H50.5385V14.1133H47.4658V18.6217C47.4658 20.2633 49.1619 20.5083 50.096 20.5083C50.4893 20.5083 50.7597 20.4838 50.7597 20.4838V24.7227C50.7597 24.7227 50.2189 24.7962 49.4077 24.7962C47.0725 24.7962 42.5251 24.1592 42.5251 19.2342V14.1133V14.1133Z" fill="#253238"/>
<path d="M67.8438 10.0214H72.5879V12.4961C72.5879 12.9861 72.5387 13.4026 72.5387 13.4026H72.5879C73.227 11.418 75.0706 9.75183 77.2829 9.75183C77.5778 9.75183 77.8482 9.80083 77.8482 9.80083V14.6277C77.8482 14.6277 77.4549 14.5542 76.8404 14.5542C75.6605 14.5542 73.7678 14.9218 73.0549 17.127C72.8829 17.666 72.8091 18.3276 72.8091 19.1116V24.6491H67.8683V10.0214H67.8438Z" fill="#253238"/>
<path fill-rule="evenodd" clip-rule="evenodd" d="M59.2158 9.67834C63.5667 9.67834 66.0002 12.6921 66.0002 16.7594C66.0002 17.2495 65.8773 18.3031 65.8773 18.3031H56.6102C56.979 20.0917 58.4538 20.9248 60.027 20.9248C62.141 20.9248 64.0829 19.4547 64.0829 19.4547L65.9019 22.9095C65.9019 22.9095 63.5421 25.0412 59.6091 25.0412C54.3488 25.0412 51.522 21.2678 51.522 17.3475C51.5711 13.0351 54.4963 9.67834 59.2158 9.67834ZM61.0594 15.4853C61.0594 14.3827 60.2974 13.3782 59.1175 13.3782C57.6918 13.3782 57.0035 14.4072 56.7577 15.4853H61.0594Z" fill="#253238"/>
</svg>
